<?xml version="1.0" encoding="utf-8"?>
<!-- Generator: Adobe Illustrator 16.0.0, SVG Export Plug-In . SVG Version: 6.00 Build 0)  -->
<!DOCTYPE svg PUBLIC "-//W3C//DTD SVG 1.1//EN" "http://www.w3.org/Graphics/SVG/1.1/DTD/svg11.dtd">
<svg version="1.1" id="Layer_1" xmlns="http://www.w3.org/2000/svg" xmlns:xlink="http://www.w3.org/1999/xlink" x="0px" y="0px"
	 width="260px" height="64.528px" viewBox="0 0 260 64.528" enable-background="new 0 0 260 64.528" xml:space="preserve">
<g>
	<path fill-rule="evenodd" clip-rule="evenodd" fill="#ffffff" d="M37.683,52.145c4.486,1.558,9.042,1.665,13.63,0.443
		c4.639-1.232,8.319-3.97,11.438-7.568c0.19,0.34-0.047,0.545-0.142,0.759c-4.298,9.651-11.661,15.72-21.747,18.621
		c-0.679,0.196-1.207,0.22-1.737-0.293c-3.592-3.475-5.563-7.673-5.135-12.694c0.643-7.563,4.542-13.028,11.273-16.493
		c0.092-0.048,0.191-0.079,0.275-0.186c-0.852-0.138-1.696-0.186-2.539-0.071c-10.132,1.391-18.774,9.836-20.318,19.917
		c-0.425,2.771-0.319,5.552,0.336,8.29c0.071,0.297,0.164,0.561-0.074,0.807c-0.258,0.267-0.524,0.112-0.798,0.011
		C11.792,59.868,4.913,52.692,1.449,42.236C0.477,39.299,0.1,36.253,0.002,33.17C-0.003,32.997,0,32.822,0.012,32.649
		c0.014-0.238,0.053-0.516,0.338-0.523c0.308-0.009,0.289,0.282,0.326,0.511c0.457,2.856,1.88,5.203,3.888,7.216
		c2.551,2.556,5.69,3.132,9.134,2.627c4.875-0.715,9.303-2.734,13.747-4.707c3.568-1.583,7.102-3.245,10.894-4.269
		c3.96-1.07,7.854-1.33,11.741,0.356c4.941,2.144,7.133,7.991,4.578,12.427c-1.413,2.452-3.808,3.58-6.3,4.5
		c-2.566,0.948-5.29,0.942-7.981,1.064c-0.895,0.042-1.793,0.006-2.69,0.006C37.684,51.953,37.684,52.049,37.683,52.145z"/>
	<path fill-rule="evenodd" clip-rule="evenodd" fill="#ffffff" d="M23.109,4.125c-1.756,0.857-2.859,2.158-3.448,3.865
		c-0.501,1.455,0.087,2.719,1.568,3.561c1.664,0.946,3.501,1.188,5.368,1.199c3.988,0.024,7.919-0.507,11.81-1.354
		c4.265-0.928,8.542-1.378,12.832-0.206c7.109,1.942,11.302,6.715,13.184,13.695c0.104,0.385,0.086,0.803,0.126,1.213
		c-0.403,0.057-0.424-0.285-0.513-0.483c-2.483-5.526-6.843-8.752-12.571-10.341c-3.951-1.096-7.877-0.683-11.804,0.093
		c-4.523,0.893-9.06,1.698-13.678,1.889c-2.851,0.117-5.683-0.01-8.413-0.967c-0.436-0.153-0.873-0.327-1.274-0.552
		c-1.729-0.97-2.28-2.492-1.614-4.446c0.185-0.542,0.429-1.063,0.691-1.705c-1.259,0.313-2.087,1.082-2.745,2.016
		c-1.808,2.566-1.968,6.501,1.453,8.877c1.988,1.381,4.151,1.744,6.493,1.776c6.769,0.091,13.292-1.365,19.802-2.962
		c3.985-0.978,7.993-1.41,12.058-0.483c6.341,1.445,10.47,5.317,12.562,11.43c0.048,0.142,0.067,0.28-0.047,0.403
		c-0.19,0.063-0.26-0.087-0.323-0.206c-2.271-4.235-6.015-6.252-10.57-7.114c-3.877-0.733-7.675-0.381-11.455,0.604
		c-3.958,1.031-7.751,2.573-11.672,3.713c-5.304,1.543-10.666,2.761-16.243,2.513c-2.321-0.103-4.625-0.383-6.802-1.271
		c-3.97-1.62-5.534-4.614-4.713-8.832c0.571-2.936,2.034-5.392,3.905-7.654c3.433-4.149,7.442-7.59,12.489-9.592
		c12.749-5.057,24.459-3.314,35.004,5.58c0.331,0.28,0.616,0.614,0.917,0.928c0.118,0.122,0.266,0.245,0.107,0.441
		c-0.16,0.198-0.292,0.077-0.441-0.019c-4.966-3.221-10.384-3.243-15.952-2.28c-3.197,0.553-6.369,1.254-9.603,1.582
		c-1.369,0.138-2.718,0.033-4.066-0.218c-2.224-0.413-3.439-2.044-2.454-4.332C23.107,4.413,23.093,4.321,23.109,4.125z"/>
	<path fill-rule="evenodd" clip-rule="evenodd" fill="#ffffff" d="M124.271,49.618c1.737-1.056,1.609-2.695,1.593-4.342
		c-0.038-3.77-0.056-7.542,0.014-11.31c0.021-1.151-0.369-2.011-1.119-2.792c-0.133-0.139-0.337-0.234-0.352-0.578
		c0.913,0,1.822-0.014,2.73,0.004c0.73,0.014,1.451,0.018,2.109-0.365c0.432-0.25,0.561-0.08,0.552,0.367
		c-0.018,0.776-0.005,1.553-0.005,2.278c0.27,0.148,0.362,0.028,0.437-0.095c2.282-3.735,8.326-3.445,10.946-0.415
		c0.321,0.372,0.497,1.102,1.013,1.025c0.381-0.057,0.695-0.64,1.015-1.008c2.687-3.101,7.41-2.748,9.914-1.229
		c2.218,1.346,3.131,3.404,3.132,5.931c0.001,2.871,0.046,5.743-0.019,8.613c-0.035,1.569-0.012,3.041,1.533,4.039
		c-2.284,0-4.569,0-6.915,0c1.933-2.448,1.308-5.345,1.461-8.092c0.101-1.823,0.041-3.651-0.488-5.433
		c-0.64-2.16-2.033-3.308-4.113-3.335c-2.283-0.03-3.68,0.991-4.374,3.214c-0.314,1.003-0.451,2.041-0.431,3.089
		c0.037,1.911,0.099,3.822,0.168,5.733c0.063,1.7,0.026,3.433,1.542,4.842c-2.453,0-4.689,0-7.049,0
		c1.599-1.799,1.433-3.951,1.476-6.047c0.048-2.228,0.218-4.464-0.281-6.67c-0.167-0.74-0.404-1.451-0.787-2.107
		c-0.965-1.649-2.45-2.201-4.28-2.031c-1.714,0.159-2.8,1.101-3.41,2.677c-0.545,1.412-0.661,2.891-0.581,4.365
		c0.104,1.914,0.139,3.825,0.107,5.737c-0.023,1.483,0.061,2.906,1.455,4.062c-2.399,0-4.599,0-6.799,0
		C124.401,49.704,124.336,49.661,124.271,49.618z"/>
	<path fill-rule="evenodd" clip-rule="evenodd" fill="#ffffff" d="M78.838,58.284c-2.24,0-4.479,0-6.727,0
		c0-0.086-0.023-0.168,0.003-0.192c1.137-0.991,1.429-2.221,1.413-3.721c-0.073-6.76-0.062-13.521-0.002-20.281
		c0.01-1.172-0.331-2.078-1.076-2.903c-0.13-0.145-0.245-0.303-0.366-0.453c0.218-0.258,0.463-0.129,0.677-0.133
		c1.218-0.019,2.476,0.161,3.642-0.088c1.017-0.216,1.069,0.098,1.025,0.882c-0.023,0.417-0.188,1.045,0.156,1.211
		c0.399,0.192,0.641-0.444,0.963-0.695c5.278-4.101,13.76-0.81,15.036,5.804c0.858,4.451-1.072,9.119-4.573,11.229
		c-2.138,1.289-4.441,1.604-6.869,1.221c-0.281-0.044-0.568-0.146-0.816-0.287c-1.285-0.73-1.971-1.947-2.732-3.333
		c1.169,0.332,2.145,0.676,3.178,0.81c4.766,0.612,7.908-2.205,7.739-7.012c-0.09-2.599-0.841-4.935-3.146-6.451
		c-2.509-1.65-6.69-0.762-8.355,1.725c-0.416,0.62-0.592,1.313-0.592,2.058c0,6.005,0.007,12.012-0.009,18.017
		c-0.003,0.919,0.55,1.485,1.102,2.082C78.637,57.913,78.864,57.985,78.838,58.284z"/>
	<path fill-rule="evenodd" clip-rule="evenodd" fill="#ffffff" d="M223.274,47.704c-0.456,0.762-0.916,1.524-1.368,2.291
		c-0.151,0.256-0.363,0.317-0.652,0.33c-1.729,0.071-3.18-0.542-4.374-1.765c-0.54-0.553-0.857-1.213-0.866-2.022
		c-0.024-2.057-0.091-4.114-0.12-6.171c-0.009-0.64-0.042-0.994-0.848-0.574c-1.322,0.688-2.823,0.838-4.25,1.209
		c-0.747,0.194-1.551,0.316-2.143,0.852c-1.444,1.308-1.104,3.799,0.651,4.866c1.083,0.659,2.278,0.814,3.521,0.68
		c0.735-0.079,1.47-0.177,2.245-0.271c-1.814,2.994-2.46,3.521-5.928,3.051c-3.273-0.443-5.708-3.212-5.594-6.284
		c0.089-2.329,1.519-4.084,3.78-4.595c1.723-0.388,3.454-0.738,5.181-1.112c0.765-0.166,1.521-0.353,2.213-0.747
		c0.756-0.431,1.281-1.029,1.279-1.927c-0.001-0.963-0.536-1.631-1.374-2.053c-1.752-0.883-3.548-0.679-5.336-0.15
		c-0.817,0.242-1.607,0.577-2.662,0.962c0.882-1.292,1.458-2.483,2.353-3.472c0.376-0.416,0.895-0.552,1.406-0.62
		c2.565-0.337,5.038-0.066,7.308,1.275c1.52,0.898,2.286,2.216,2.262,4.022c-0.04,2.898,0.051,5.8-0.033,8.697
		c-0.062,2.134,0.845,2.909,2.755,3.33C222.872,47.549,223.092,47.496,223.274,47.704z"/>
	<path fill-rule="evenodd" clip-rule="evenodd" fill="#ffffff" d="M172.108,47.101c-0.717,0.941-1.276,1.71-1.876,2.445
		c-0.278,0.341-0.694,0.512-1.125,0.622c-3.059,0.772-6.559-0.647-8.057-3.438c-1.365-2.545-0.744-6.589,3.276-7.457
		c1.337-0.29,2.707-0.455,4.025-0.774c1.015-0.246,2.081-0.438,3.035-0.938c0.851-0.446,1.497-1.058,1.478-2.073
		c-0.019-0.987-0.582-1.657-1.472-2.078c-1.745-0.822-3.506-0.609-5.262-0.09c-0.797,0.236-1.567,0.567-2.358,0.857
		c0.613-2.581,2.504-4.077,5.068-4.117c1.988-0.031,3.862,0.347,5.596,1.326c1.599,0.902,2.417,2.237,2.386,4.124
		c-0.047,2.871,0.055,5.744-0.035,8.613c-0.071,2.253,0.904,2.998,2.714,3.354c0.685,0.135,0.684,0.305,0.325,0.783
		c-0.243,0.324-0.5,0.664-0.626,1.039c-0.366,1.081-1.18,1.118-2.09,0.992c-1.343-0.188-2.476-0.787-3.401-1.771
		c-0.535-0.569-0.823-1.239-0.835-2.04c-0.031-2.086-0.08-4.172-0.151-6.258c-0.007-0.247,0.188-0.877-0.471-0.557
		c-1.708,0.834-3.583,1.08-5.39,1.54c-1.303,0.331-1.958,1.064-2.109,2.349c-0.162,1.364,0.247,2.464,1.461,3.185
		c1.064,0.632,2.228,0.793,3.438,0.666C170.399,47.326,171.141,47.221,172.108,47.101z"/>
	<path fill-rule="evenodd" clip-rule="evenodd" fill="#ffffff" d="M251.83,47.192c-1.723,2.708-1.93,3.507-5.939,2.98
		c-3.229-0.423-5.582-3.13-5.515-6.251c0.05-2.333,1.462-4.092,3.737-4.611c2.061-0.472,4.129-0.913,6.192-1.379
		c0.308-0.07,0.614-0.179,0.898-0.318c0.874-0.425,1.548-0.985,1.553-2.092c0.005-1.105-0.629-1.722-1.516-2.153
		c-1.313-0.64-2.701-0.578-4.089-0.324c-1.196,0.218-2.322,0.669-3.462,1.185c0.671-2.696,2.516-4.132,5.174-4.167
		c1.958-0.025,3.805,0.358,5.511,1.322c1.596,0.901,2.416,2.238,2.384,4.126c-0.05,2.9-0.014,5.801-0.014,8.701
		c0.001,2.066,0.624,2.869,2.688,3.266c0.649,0.126,0.716,0.272,0.334,0.772c-0.263,0.343-0.523,0.713-0.671,1.114
		c-0.339,0.924-1.011,1.055-1.866,0.951c-1.38-0.167-2.553-0.738-3.523-1.72c-0.641-0.648-0.912-1.445-0.923-2.364
		c-0.022-1.999-0.109-3.997-0.123-5.997c-0.004-0.598-0.06-0.799-0.697-0.479c-1.546,0.775-3.289,0.904-4.921,1.399
		c-1.896,0.575-2.58,1.598-2.342,3.475c0.167,1.306,1.035,2.021,2.18,2.47c1.354,0.53,2.738,0.328,4.122,0.149
		C251.271,47.21,251.54,47.033,251.83,47.192z"/>
	<path fill-rule="evenodd" clip-rule="evenodd" fill="#ffffff" d="M189.639,49.838c-2.05,0-4.101-0.006-6.15,0.005
		c-0.521,0.003-0.502-0.23-0.213-0.494c1.1-1.008,1.142-2.288,1.133-3.663c-0.041-6.323-0.038-12.646-0.003-18.97
		c0.008-1.539,0.074-3.038-1.423-4.082c0.042-0.062,0.085-0.124,0.128-0.187c0.727,0,1.458,0.052,2.178-0.013
		c0.914-0.082,1.907,0.219,2.71-0.509c0.158-0.144,0.336-0.061,0.345,0.18c0.011,0.29-0.001,0.581-0.001,0.871
		c-0.001,7.658,0.021,15.316-0.021,22.973C188.314,47.413,188.495,48.718,189.639,49.838z"/>
	<path fill-rule="evenodd" clip-rule="evenodd" fill="#ffffff" d="M233.431,49.771c-2.449,0-4.693,0-6.938,0
		c-0.012-0.072-0.047-0.157-0.025-0.175c1.265-1.045,1.444-2.414,1.41-3.971c-0.084-3.854-0.066-7.713-0.003-11.569
		c0.018-1.127-0.335-2.026-0.984-2.876c-0.116-0.151-0.334-0.25-0.28-0.583c0.786,0,1.583-0.004,2.381,0.001
		c0.759,0.005,1.523-0.027,2.218-0.341c0.534-0.241,0.591-0.038,0.574,0.42c-0.024,0.682-0.036,1.367,0.1,2.072
		c0.384-0.026,0.429-0.328,0.571-0.516c1.284-1.702,2.942-2.461,5.087-2.083c0.453,0.08,0.65,0.22,0.626,0.716
		c-0.042,0.868-0.027,1.739-0.004,2.608c0.011,0.451,0.003,0.647-0.555,0.405c-2.33-1.012-4.697,0.125-5.451,2.551
		c-0.286,0.924-0.45,1.867-0.42,2.825c0.08,2.603-0.076,5.218,0.408,7.803C232.324,48.012,232.611,48.906,233.431,49.771z"/>
	<path fill-rule="evenodd" clip-rule="evenodd" fill="#ffffff" d="M104.218,49.793c-2.432,0-4.66,0-6.903,0
		c0-0.097-0.034-0.22,0.005-0.251c1.265-1.017,1.431-2.371,1.4-3.898c-0.074-3.798-0.068-7.6,0.001-11.398
		c0.023-1.219-0.333-2.205-1.062-3.116c-0.089-0.111-0.161-0.237-0.236-0.358c-0.011-0.018,0.006-0.053,0.026-0.175
		c0.807,0,1.632-0.002,2.458,0c0.73,0.002,1.459-0.045,2.131-0.345c0.452-0.202,0.564-0.086,0.55,0.372
		c-0.022,0.714-0.006,1.429-0.006,2.149c0.499,0.01,0.521-0.313,0.661-0.502c1.29-1.755,2.982-2.5,5.155-2.113
		c0.418,0.075,0.592,0.217,0.575,0.67c-0.035,0.927-0.015,1.856,0.001,2.785c0.006,0.349-0.045,0.469-0.439,0.327
		c-3.028-1.09-5.466,0.315-5.809,3.556c-0.345,3.258-0.258,6.541,0.272,9.79C103.144,48.173,103.506,48.984,104.218,49.793z"/>
	<path fill-rule="evenodd" clip-rule="evenodd" fill="#ffffff" d="M160.739,25.305c-1.302,0-2.4,0-3.625,0
		c0.685-0.672,0.558-1.409,0.455-2.162c-0.344-2.522-0.663-5.048-1.011-7.725c-0.819,0.622-0.928,1.5-1.25,2.209
		c-1.102,2.426-2.124,4.889-3.135,7.355c-0.279,0.679-0.537,0.652-0.943,0.149c-0.883-1.096-1.454-2.368-2.038-3.629
		c-0.907-1.957-1.788-3.927-2.681-5.891c-0.059-0.132-0.124-0.261-0.386-0.305c-0.185,1.208-0.379,2.418-0.558,3.63
		c-0.216,1.463-0.385,2.935-0.642,4.39c-0.122,0.696-0.103,1.31,0.511,1.932c-1.066,0-1.997,0-2.876,0
		c1.186-2.77,1.188-5.827,1.712-8.78c0.089-0.51,0.16-1.024,0.246-1.536c0.111-0.664,0.197-1.321-0.493-1.951
		c1.183,0,2.186,0.003,3.189-0.002c0.291-0.001,0.338,0.185,0.455,0.41c1.304,2.518,2.371,5.144,3.588,7.701
		c0.121,0.253,0.14,0.571,0.506,0.791c0.708-1.592,1.432-3.16,2.105-4.751c0.507-1.199,0.96-2.422,1.413-3.644
		c0.125-0.338,0.262-0.527,0.671-0.513c0.95,0.032,1.9,0.009,2.998,0.009c-0.559,0.566-0.499,1.164-0.408,1.765
		c0.441,2.953,0.685,5.934,1.273,8.868C159.94,24.246,160.163,24.766,160.739,25.305z"/>
	<path fill-rule="evenodd" clip-rule="evenodd" fill="#ffffff" d="M202.345,49.866c-1.193,0.482-2.443,0.44-3.692-0.114
		c-1.861-0.826-3.242-2.228-4.451-3.802c-1.572-2.044-3.072-4.144-4.644-6.189c-0.377-0.492-0.353-0.77,0.064-1.226
		c1.429-1.559,2.882-3.103,4.139-4.812c0.697-0.95,1.448-1.899,0.106-3.087c2.145,0,4.087,0,6.202,0
		c-0.661,0.787-1.227,1.465-1.797,2.138c-1.519,1.793-3.035,3.586-4.561,5.373c-0.255,0.299-0.484,0.513-0.133,0.945
		c2.338,2.88,4.449,5.941,6.916,8.72C201.104,48.498,201.724,49.177,202.345,49.866z"/>
	<path fill-rule="evenodd" clip-rule="evenodd" fill="#ffffff" d="M168.116,13.016c1.365,0,2.48,0,3.787,0
		c-1.016,0.823-0.775,1.839-0.785,2.796c-0.01,1.009-0.002,2.018-0.002,3.268c0.607-0.699,1.092-1.232,1.548-1.79
		c0.679-0.829,1.359-1.66,1.996-2.521c0.387-0.524,0.945-1.092-0.164-1.762c1.378,0,2.468,0,3.553,0
		c0.16,0.264-0.07,0.376-0.188,0.517c-1.289,1.53-2.576,3.061-3.877,4.579c-0.232,0.272-0.358,0.449-0.065,0.797
		c0.968,1.155,1.887,2.349,2.831,3.524c0.891,1.109,1.883,2.111,3.355,2.875c-1.748,0.167-3.159,0.158-4.347-1.104
		c-1.393-1.482-2.625-3.093-3.938-4.638c-0.175-0.207-0.356-0.41-0.65-0.574c0.269,2.108-0.67,4.295,0.55,6.343
		c-1.107,0-2.269,0-3.732,0c1.111-0.68,1.008-1.572,1.005-2.443c-0.007-2.465-0.013-4.929,0.003-7.394
		C169,14.618,169.05,13.75,168.116,13.016z"/>
	<path fill-rule="evenodd" clip-rule="evenodd" fill="#ffffff" d="M120.237,49.783c-2.467,0-4.661,0-6.88,0
		c0-0.08-0.033-0.2,0.005-0.231c1.21-0.956,1.437-2.215,1.4-3.7c-0.089-3.625-0.031-7.252-0.03-10.878
		c0-0.196,0.021-0.391,0.036-0.673c1.395,0.613,2.57,1.428,3.664,2.375c0.292,0.253,0.225,0.573,0.225,0.885
		c0.001,2.814,0.042,5.629-0.016,8.442C118.612,47.438,118.845,48.708,120.237,49.783z"/>
	<path fill-rule="evenodd" clip-rule="evenodd" fill="#ffffff" d="M120.939,22.787c1.134,0.861,2.286,1.275,3.529,1.461
		c1.01,0.149,1.971,0.01,2.859-0.494c1.172-0.665,1.301-1.791,0.32-2.721c-0.447-0.423-0.994-0.697-1.551-0.949
		c-0.925-0.416-1.853-0.825-2.771-1.255c-0.833-0.391-1.531-0.938-1.918-1.807c-0.553-1.242-0.13-2.673,1.095-3.401
		c2.084-1.24,4.326-1.091,6.587-0.634c0.276,0.056,0.371,0.23,0.369,0.5c-0.001,0.348,0.03,0.695,0.036,1.042
		c0.003,0.164,0.1,0.367-0.075,0.48c-0.185,0.119-0.315-0.065-0.455-0.154c-1.099-0.7-2.299-0.931-3.579-0.747
		c-0.844,0.122-1.616,0.408-1.806,1.362c-0.185,0.933,0.437,1.5,1.145,1.86c1.263,0.643,2.582,1.175,3.875,1.758
		c1.846,0.833,2.545,2.485,1.731,4.1c-0.338,0.672-0.897,1.126-1.536,1.492c-2.219,1.268-4.562,1.101-6.933,0.593
		c-0.283-0.061-0.447-0.254-0.515-0.53C121.205,24.159,120.967,23.594,120.939,22.787z"/>
	<path fill-rule="evenodd" clip-rule="evenodd" fill="#ffffff" d="M137.905,25.283c-1.318,0-2.478,0-3.887,0
		c1.025-0.777,0.859-1.73,0.86-2.642c0.002-2.491-0.017-4.982,0.014-7.473c0.007-0.598-0.149-0.806-0.775-0.787
		c-1.154,0.036-2.324-0.101-3.443,0.591c0.162-0.593,0.326-1.186,0.483-1.781c0.081-0.299,0.255-0.269,0.525-0.252
		c3.175,0.194,6.351,0.059,9.567,0.076c0.125,0.282-0.126,0.55-0.205,0.833c-0.296,1.071-0.299,1.027-1.311,0.669
		c-0.804-0.285-1.663-0.106-2.496-0.096c-0.314,0.004-0.268,0.319-0.268,0.548c0.001,2.839,0.007,5.678-0.004,8.516
		C136.962,24.201,137.4,24.694,137.905,25.283z"/>
	<path fill-rule="evenodd" clip-rule="evenodd" fill="#ffffff" d="M162.146,25.248c0.761-0.634,0.774-1.364,0.767-2.134
		c-0.025-2.665-0.027-5.329,0.002-7.993c0.007-0.75-0.04-1.441-0.794-2.063c1.287,0,2.407,0,3.671,0
		c-0.955,0.838-0.741,1.902-0.744,2.918c-0.005,2.375,0.012,4.749-0.01,7.124c-0.006,0.772,0.023,1.504,0.82,2.148
		C164.563,25.248,163.441,25.248,162.146,25.248z"/>
	<path fill-rule="evenodd" clip-rule="evenodd" fill="#ffffff" d="M118.657,35.992c-1.366-2.194-3.121-3.913-5.479-5.365
		c0.884,0,1.508-0.014,2.13,0.003c0.999,0.027,1.969-0.047,2.847-0.593c0.22-0.137,0.498-0.354,0.5,0.166
		C118.66,32.132,118.657,34.062,118.657,35.992z"/>
</g>
</svg>
